<svg width="500" height="405" xmlns="http://www.w3.org/2000/svg">
 <defs>
  <clipPath id="IlzoKKmPdSoG">
   <path id="svg_1" d="m0,0l1160,0l0,636l-1160,0l0,-636z" fill="none"/>
  </clipPath>
 </defs>
 <g>
  <title>background</title>
  <rect fill="none" id="canvas_background" height="407" width="502" y="-1" x="-1"/>
 </g>
 <g>
  <title>Layer 1</title>
  <g stroke="null" id="svg_2" clip-path="url(#IlzoKKmPdSoG)" transform="translate(-208,-3) scale(1) ">
   <g stroke="null" id="svg_3">
    <rect id="svg_4" height="408.122091" width="744.373624" y="2.396149" x="-35.937625" fill="rgb(255,255,255)"/>
    <path stroke="rgb(0,0,0)" id="svg_5" stroke-miterlimit="10" d="m232.614411,4.000403l0,372.186812" fill="none"/>
    <path stroke="rgb(0,0,0)" id="svg_6" stroke-miterlimit="10" d="m232.614411,3.358701l-2.566806,2.566806" fill="none"/>
    <path stroke="rgb(0,0,0)" id="svg_7" stroke-miterlimit="10" d="m232.614411,3.358701l2.566806,2.566806" fill="none"/>
    <text transform="matrix(0.6417014002799988,0,0,0.6417014002799988,425.65873646736145,-15.406839787960052) " id="svg_8" text-anchor="start" y="605.743416" x="421.667984" font-weight="normal" font-style="normal" font-size="16px" font-family="geogebra-sans-serif, sans-serif" fill="rgb(0,0,0)">α</text>
    <path stroke="rgb(0,0,0)" id="svg_9" stroke-miterlimit="10" d="m232.614411,376.187215l474.859036,0" fill="none"/>
    <path stroke="rgb(0,0,0)" id="svg_10" stroke-miterlimit="10" d="m708.115148,376.187215l-2.566806,-2.566806" fill="none"/>
    <path stroke="rgb(0,0,0)" id="svg_11" stroke-miterlimit="10" d="m708.115148,376.187215l-2.566806,2.566806" fill="none"/>
    <path stroke="rgb(0,0,0)" id="svg_12" stroke-miterlimit="10" d="m232.614411,376.187215l0,1.925104" fill="none"/>
    <text transform="matrix(0.6417014002799988,0,0,0.6417014002799988,425.65873646736145,-15.406839787960052) " id="svg_13" text-anchor="start" y="625.743416" x="-259.332016" font-weight="normal" font-style="normal" font-size="12px" font-family="geogebra-sans-serif, sans-serif" fill="rgb(0,0,0)">0.2</text>
    <text transform="matrix(0.6417014002799988,0,0,0.6417014002799988,425.65873646736145,-15.406839787960052) " stroke="rgb(255,255,255)" id="svg_14" stroke-width="3" stroke-miterlimit="10" stroke-linejoin="bevel" text-anchor="start" y="625.743416" x="-259.332016" font-weight="normal" font-style="normal" font-size="12px" font-family="geogebra-sans-serif, sans-serif" fill="none">0.2</text>
    <text transform="matrix(0.6417014002799988,0,0,0.6417014002799988,425.65873646736145,-15.406839787960052) " id="svg_15" text-anchor="start" y="625.743416" x="-259.332016" font-weight="normal" font-style="normal" font-size="12px" font-family="geogebra-sans-serif, sans-serif" fill="rgb(0,0,0)">0.2</text>
    <path stroke="rgb(0,0,0)" id="svg_16" stroke-miterlimit="10" d="m264.699481,376.187215l0,1.925104" fill="none"/>
    <text transform="matrix(0.6417014002799988,0,0,0.6417014002799988,425.65873646736145,-15.406839787960052) " id="svg_17" text-anchor="start" y="625.743416" x="-210.332016" font-weight="normal" font-style="normal" font-size="12px" font-family="geogebra-sans-serif, sans-serif" fill="rgb(0,0,0)">0.4</text>
    <text transform="matrix(0.6417014002799988,0,0,0.6417014002799988,425.65873646736145,-15.406839787960052) " stroke="rgb(255,255,255)" id="svg_18" stroke-width="3" stroke-miterlimit="10" stroke-linejoin="bevel" text-anchor="start" y="625.743416" x="-210.332016" font-weight="normal" font-style="normal" font-size="12px" font-family="geogebra-sans-serif, sans-serif" fill="none">0.4</text>
    <text transform="matrix(0.6417014002799988,0,0,0.6417014002799988,425.65873646736145,-15.406839787960052) " id="svg_19" text-anchor="start" y="625.743416" x="-210.332016" font-weight="normal" font-style="normal" font-size="12px" font-family="geogebra-sans-serif, sans-serif" fill="rgb(0,0,0)">0.4</text>
    <path stroke="rgb(0,0,0)" id="svg_20" stroke-miterlimit="10" d="m296.142849,376.187215l0,1.925104" fill="none"/>
    <text transform="matrix(0.6417014002799988,0,0,0.6417014002799988,425.65873646736145,-15.406839787960052) " id="svg_21" text-anchor="start" y="625.743416" x="-160.332016" font-weight="normal" font-style="normal" font-size="12px" font-family="geogebra-sans-serif, sans-serif" fill="rgb(0,0,0)">0.6</text>
    <text transform="matrix(0.6417014002799988,0,0,0.6417014002799988,425.65873646736145,-15.406839787960052) " stroke="rgb(255,255,255)" id="svg_22" stroke-width="3" stroke-miterlimit="10" stroke-linejoin="bevel" text-anchor="start" y="625.743416" x="-160.332016" font-weight="normal" font-style="normal" font-size="12px" font-family="geogebra-sans-serif, sans-serif" fill="none">0.6</text>
    <text transform="matrix(0.6417014002799988,0,0,0.6417014002799988,425.65873646736145,-15.406839787960052) " id="svg_23" text-anchor="start" y="625.743416" x="-160.332016" font-weight="normal" font-style="normal" font-size="12px" font-family="geogebra-sans-serif, sans-serif" fill="rgb(0,0,0)">0.6</text>
    <path stroke="rgb(0,0,0)" id="svg_24" stroke-miterlimit="10" d="m328.227919,376.187215l0,1.925104" fill="none"/>
    <text transform="matrix(0.6417014002799988,0,0,0.6417014002799988,425.65873646736145,-15.406839787960052) " id="svg_25" text-anchor="start" y="625.743416" x="-111.332016" font-weight="normal" font-style="normal" font-size="12px" font-family="geogebra-sans-serif, sans-serif" fill="rgb(0,0,0)">0.8</text>
    <text transform="matrix(0.6417014002799988,0,0,0.6417014002799988,425.65873646736145,-15.406839787960052) " stroke="rgb(255,255,255)" id="svg_26" stroke-width="3" stroke-miterlimit="10" stroke-linejoin="bevel" text-anchor="start" y="625.743416" x="-111.332016" font-weight="normal" font-style="normal" font-size="12px" font-family="geogebra-sans-serif, sans-serif" fill="none">0.8</text>
    <text transform="matrix(0.6417014002799988,0,0,0.6417014002799988,425.65873646736145,-15.406839787960052) " id="svg_27" text-anchor="start" y="625.743416" x="-111.332016" font-weight="normal" font-style="normal" font-size="12px" font-family="geogebra-sans-serif, sans-serif" fill="rgb(0,0,0)">0.8</text>
    <path stroke="rgb(0,0,0)" id="svg_28" stroke-miterlimit="10" d="m359.671288,376.187215l0,1.925104" fill="none"/>
    <text transform="matrix(0.6417014002799988,0,0,0.6417014002799988,425.65873646736145,-15.406839787960052) " id="svg_29" text-anchor="start" y="625.743416" x="-55.332016" font-weight="normal" font-style="normal" font-size="12px" font-family="geogebra-sans-serif, sans-serif" fill="rgb(0,0,0)">1</text>
    <text transform="matrix(0.6417014002799988,0,0,0.6417014002799988,425.65873646736145,-15.406839787960052) " stroke="rgb(255,255,255)" id="svg_30" stroke-width="3" stroke-miterlimit="10" stroke-linejoin="bevel" text-anchor="start" y="625.743416" x="-55.332016" font-weight="normal" font-style="normal" font-size="12px" font-family="geogebra-sans-serif, sans-serif" fill="none">1</text>
    <text transform="matrix(0.6417014002799988,0,0,0.6417014002799988,425.65873646736145,-15.406839787960052) " id="svg_31" text-anchor="start" y="625.743416" x="-55.332016" font-weight="normal" font-style="normal" font-size="12px" font-family="geogebra-sans-serif, sans-serif" fill="rgb(0,0,0)">1</text>
    <path stroke="rgb(0,0,0)" id="svg_32" stroke-miterlimit="10" d="m391.756358,376.187215l0,1.925104" fill="none"/>
    <text transform="matrix(0.6417014002799988,0,0,0.6417014002799988,425.65873646736145,-15.406839787960052) " id="svg_33" text-anchor="start" y="625.743416" x="-12.332016" font-weight="normal" font-style="normal" font-size="12px" font-family="geogebra-sans-serif, sans-serif" fill="rgb(0,0,0)">1.2</text>
    <text transform="matrix(0.6417014002799988,0,0,0.6417014002799988,425.65873646736145,-15.406839787960052) " stroke="rgb(255,255,255)" id="svg_34" stroke-width="3" stroke-miterlimit="10" stroke-linejoin="bevel" text-anchor="start" y="625.743416" x="-12.332016" font-weight="normal" font-style="normal" font-size="12px" font-family="geogebra-sans-serif, sans-serif" fill="none">1.2</text>
    <text transform="matrix(0.6417014002799988,0,0,0.6417014002799988,425.65873646736145,-15.406839787960052) " id="svg_35" text-anchor="start" y="625.743416" x="-12.332016" font-weight="normal" font-style="normal" font-size="12px" font-family="geogebra-sans-serif, sans-serif" fill="rgb(0,0,0)">1.2</text>
    <path stroke="rgb(0,0,0)" id="svg_36" stroke-miterlimit="10" d="m423.199726,376.187215l0,1.925104" fill="none"/>
    <text transform="matrix(0.6417014002799988,0,0,0.6417014002799988,425.65873646736145,-15.406839787960052) " id="svg_37" text-anchor="start" y="625.743416" x="37.667984" font-weight="normal" font-style="normal" font-size="12px" font-family="geogebra-sans-serif, sans-serif" fill="rgb(0,0,0)">1.4</text>
    <text transform="matrix(0.6417014002799988,0,0,0.6417014002799988,425.65873646736145,-15.406839787960052) " stroke="rgb(255,255,255)" id="svg_38" stroke-width="3" stroke-miterlimit="10" stroke-linejoin="bevel" text-anchor="start" y="625.743416" x="37.667984" font-weight="normal" font-style="normal" font-size="12px" font-family="geogebra-sans-serif, sans-serif" fill="none">1.4</text>
    <text transform="matrix(0.6417014002799988,0,0,0.6417014002799988,425.65873646736145,-15.406839787960052) " id="svg_39" text-anchor="start" y="625.743416" x="37.667984" font-weight="normal" font-style="normal" font-size="12px" font-family="geogebra-sans-serif, sans-serif" fill="rgb(0,0,0)">1.4</text>
    <path stroke="rgb(0,0,0)" id="svg_40" stroke-miterlimit="10" d="m455.284797,376.187215l0,1.925104" fill="none"/>
    <text transform="matrix(0.6417014002799988,0,0,0.6417014002799988,425.65873646736145,-15.406839787960052) " id="svg_41" text-anchor="start" y="625.743416" x="86.667984" font-weight="normal" font-style="normal" font-size="12px" font-family="geogebra-sans-serif, sans-serif" fill="rgb(0,0,0)">1.6</text>
    <text transform="matrix(0.6417014002799988,0,0,0.6417014002799988,425.65873646736145,-15.406839787960052) " stroke="rgb(255,255,255)" id="svg_42" stroke-width="3" stroke-miterlimit="10" stroke-linejoin="bevel" text-anchor="start" y="625.743416" x="86.667984" font-weight="normal" font-style="normal" font-size="12px" font-family="geogebra-sans-serif, sans-serif" fill="none">1.6</text>
    <text transform="matrix(0.6417014002799988,0,0,0.6417014002799988,425.65873646736145,-15.406839787960052) " id="svg_43" text-anchor="start" y="625.743416" x="86.667984" font-weight="normal" font-style="normal" font-size="12px" font-family="geogebra-sans-serif, sans-serif" fill="rgb(0,0,0)">1.6</text>
    <path stroke="rgb(0,0,0)" id="svg_44" stroke-miterlimit="10" d="m486.728165,376.187215l0,1.925104" fill="none"/>
    <text transform="matrix(0.6417014002799988,0,0,0.6417014002799988,425.65873646736145,-15.406839787960052) " id="svg_45" text-anchor="start" y="625.743416" x="136.667984" font-weight="normal" font-style="normal" font-size="12px" font-family="geogebra-sans-serif, sans-serif" fill="rgb(0,0,0)">1.8</text>
    <text transform="matrix(0.6417014002799988,0,0,0.6417014002799988,425.65873646736145,-15.406839787960052) " stroke="rgb(255,255,255)" id="svg_46" stroke-width="3" stroke-miterlimit="10" stroke-linejoin="bevel" text-anchor="start" y="625.743416" x="136.667984" font-weight="normal" font-style="normal" font-size="12px" font-family="geogebra-sans-serif, sans-serif" fill="none">1.8</text>
    <text transform="matrix(0.6417014002799988,0,0,0.6417014002799988,425.65873646736145,-15.406839787960052) " id="svg_47" text-anchor="start" y="625.743416" x="136.667984" font-weight="normal" font-style="normal" font-size="12px" font-family="geogebra-sans-serif, sans-serif" fill="rgb(0,0,0)">1.8</text>
    <path stroke="rgb(0,0,0)" id="svg_48" stroke-miterlimit="10" d="m518.813235,376.187215l0,1.925104" fill="none"/>
    <text transform="matrix(0.6417014002799988,0,0,0.6417014002799988,425.65873646736145,-15.406839787960052) " id="svg_49" text-anchor="start" y="625.743416" x="191.667984" font-weight="normal" font-style="normal" font-size="12px" font-family="geogebra-sans-serif, sans-serif" fill="rgb(0,0,0)">2</text>
    <text transform="matrix(0.6417014002799988,0,0,0.6417014002799988,425.65873646736145,-15.406839787960052) " stroke="rgb(255,255,255)" id="svg_50" stroke-width="3" stroke-miterlimit="10" stroke-linejoin="bevel" text-anchor="start" y="625.743416" x="191.667984" font-weight="normal" font-style="normal" font-size="12px" font-family="geogebra-sans-serif, sans-serif" fill="none">2</text>
    <text transform="matrix(0.6417014002799988,0,0,0.6417014002799988,425.65873646736145,-15.406839787960052) " id="svg_51" text-anchor="start" y="625.743416" x="191.667984" font-weight="normal" font-style="normal" font-size="12px" font-family="geogebra-sans-serif, sans-serif" fill="rgb(0,0,0)">2</text>
    <path stroke="rgb(0,0,0)" id="svg_52" stroke-miterlimit="10" d="m550.256604,376.187215l0,1.925104" fill="none"/>
    <text transform="matrix(0.6417014002799988,0,0,0.6417014002799988,425.65873646736145,-15.406839787960052) " id="svg_53" text-anchor="start" y="625.743416" x="235.667984" font-weight="normal" font-style="normal" font-size="12px" font-family="geogebra-sans-serif, sans-serif" fill="rgb(0,0,0)">2.2</text>
    <text transform="matrix(0.6417014002799988,0,0,0.6417014002799988,425.65873646736145,-15.406839787960052) " stroke="rgb(255,255,255)" id="svg_54" stroke-width="3" stroke-miterlimit="10" stroke-linejoin="bevel" text-anchor="start" y="625.743416" x="235.667984" font-weight="normal" font-style="normal" font-size="12px" font-family="geogebra-sans-serif, sans-serif" fill="none">2.2</text>
    <text transform="matrix(0.6417014002799988,0,0,0.6417014002799988,425.65873646736145,-15.406839787960052) " id="svg_55" text-anchor="start" y="625.743416" x="235.667984" font-weight="normal" font-style="normal" font-size="12px" font-family="geogebra-sans-serif, sans-serif" fill="rgb(0,0,0)">2.2</text>
    <path stroke="rgb(0,0,0)" id="svg_56" stroke-miterlimit="10" d="m582.341674,376.187215l0,1.925104" fill="none"/>
    <text transform="matrix(0.6417014002799988,0,0,0.6417014002799988,425.65873646736145,-15.406839787960052) " id="svg_57" text-anchor="start" y="625.743416" x="284.667984" font-weight="normal" font-style="normal" font-size="12px" font-family="geogebra-sans-serif, sans-serif" fill="rgb(0,0,0)">2.4</text>
    <text transform="matrix(0.6417014002799988,0,0,0.6417014002799988,425.65873646736145,-15.406839787960052) " stroke="rgb(255,255,255)" id="svg_58" stroke-width="3" stroke-miterlimit="10" stroke-linejoin="bevel" text-anchor="start" y="625.743416" x="284.667984" font-weight="normal" font-style="normal" font-size="12px" font-family="geogebra-sans-serif, sans-serif" fill="none">2.4</text>
    <text transform="matrix(0.6417014002799988,0,0,0.6417014002799988,425.65873646736145,-15.406839787960052) " id="svg_59" text-anchor="start" y="625.743416" x="284.667984" font-weight="normal" font-style="normal" font-size="12px" font-family="geogebra-sans-serif, sans-serif" fill="rgb(0,0,0)">2.4</text>
    <path stroke="rgb(0,0,0)" id="svg_60" stroke-miterlimit="10" d="m613.785042,376.187215l0,1.925104" fill="none"/>
    <text transform="matrix(0.6417014002799988,0,0,0.6417014002799988,425.65873646736145,-15.406839787960052) " id="svg_61" text-anchor="start" y="625.743416" x="334.667984" font-weight="normal" font-style="normal" font-size="12px" font-family="geogebra-sans-serif, sans-serif" fill="rgb(0,0,0)">2.6</text>
    <text transform="matrix(0.6417014002799988,0,0,0.6417014002799988,425.65873646736145,-15.406839787960052) " stroke="rgb(255,255,255)" id="svg_62" stroke-width="3" stroke-miterlimit="10" stroke-linejoin="bevel" text-anchor="start" y="625.743416" x="334.667984" font-weight="normal" font-style="normal" font-size="12px" font-family="geogebra-sans-serif, sans-serif" fill="none">2.6</text>
    <text transform="matrix(0.6417014002799988,0,0,0.6417014002799988,425.65873646736145,-15.406839787960052) " id="svg_63" text-anchor="start" y="625.743416" x="334.667984" font-weight="normal" font-style="normal" font-size="12px" font-family="geogebra-sans-serif, sans-serif" fill="rgb(0,0,0)">2.6</text>
    <path stroke="rgb(0,0,0)" id="svg_64" stroke-miterlimit="10" d="m645.870112,376.187215l0,1.925104" fill="none"/>
    <text transform="matrix(0.6417014002799988,0,0,0.6417014002799988,425.65873646736145,-15.406839787960052) " id="svg_65" text-anchor="start" y="625.743416" x="383.667984" font-weight="normal" font-style="normal" font-size="12px" font-family="geogebra-sans-serif, sans-serif" fill="rgb(0,0,0)">2.8</text>
    <text transform="matrix(0.6417014002799988,0,0,0.6417014002799988,425.65873646736145,-15.406839787960052) " stroke="rgb(255,255,255)" id="svg_66" stroke-width="3" stroke-miterlimit="10" stroke-linejoin="bevel" text-anchor="start" y="625.743416" x="383.667984" font-weight="normal" font-style="normal" font-size="12px" font-family="geogebra-sans-serif, sans-serif" fill="none">2.8</text>
    <text transform="matrix(0.6417014002799988,0,0,0.6417014002799988,425.65873646736145,-15.406839787960052) " id="svg_67" text-anchor="start" y="625.743416" x="383.667984" font-weight="normal" font-style="normal" font-size="12px" font-family="geogebra-sans-serif, sans-serif" fill="rgb(0,0,0)">2.8</text>
    <path stroke="rgb(0,0,0)" id="svg_68" stroke-miterlimit="10" d="m677.313481,376.187215l0,1.925104" fill="none"/>
    <text transform="matrix(0.6417014002799988,0,0,0.6417014002799988,425.65873646736145,-15.406839787960052) " id="svg_69" text-anchor="start" y="44.743416" x="-296.332016" font-weight="normal" font-style="normal" font-size="16px" font-family="geogebra-sans-serif, sans-serif" fill="rgb(0,0,0)">|1-αλi|</text>
    <path stroke="rgb(0,0,0)" id="svg_70" stroke-miterlimit="10" d="m230.689306,320.359193l1.925104,0" fill="none"/>
    <path stroke="rgb(0,0,0)" id="svg_71" stroke-miterlimit="10" d="m230.689306,264.531171l1.925104,0" fill="none"/>
    <path stroke="rgb(0,0,0)" id="svg_72" stroke-miterlimit="10" d="m230.689306,208.703149l1.925104,0" fill="none"/>
    <path stroke="rgb(0,0,0)" id="svg_73" stroke-miterlimit="10" d="m230.689306,153.516829l1.925104,0" fill="none"/>
    <path stroke="rgb(0,0,0)" id="svg_74" stroke-miterlimit="10" d="m230.689306,97.688807l1.925104,0" fill="none"/>
    <path stroke="rgb(0,0,0)" id="svg_75" stroke-miterlimit="10" d="m230.689306,41.860785l1.925104,0" fill="none"/>
    <text transform="matrix(0.6417014002799988,0,0,0.6417014002799988,425.65873646736145,-15.406839787960052) " id="svg_76" text-anchor="start" y="527.743416" x="-325.332016" font-weight="normal" font-style="normal" font-size="12px" font-family="geogebra-sans-serif, sans-serif" fill="rgb(0,0,0)">0.2</text>
    <text transform="matrix(0.6417014002799988,0,0,0.6417014002799988,425.65873646736145,-15.406839787960052) " stroke="rgb(255,255,255)" id="svg_77" stroke-width="3" stroke-miterlimit="10" stroke-linejoin="bevel" text-anchor="start" y="527.743416" x="-325.332016" font-weight="normal" font-style="normal" font-size="12px" font-family="geogebra-sans-serif, sans-serif" fill="none">0.2</text>
    <text transform="matrix(0.6417014002799988,0,0,0.6417014002799988,425.65873646736145,-15.406839787960052) " id="svg_78" text-anchor="start" y="527.743416" x="-325.332016" font-weight="normal" font-style="normal" font-size="12px" font-family="geogebra-sans-serif, sans-serif" fill="rgb(0,0,0)">0.2</text>
    <text transform="matrix(0.6417014002799988,0,0,0.6417014002799988,425.65873646736145,-15.406839787960052) " id="svg_79" text-anchor="start" y="440.743416" x="-325.332016" font-weight="normal" font-style="normal" font-size="12px" font-family="geogebra-sans-serif, sans-serif" fill="rgb(0,0,0)">0.4</text>
    <text transform="matrix(0.6417014002799988,0,0,0.6417014002799988,425.65873646736145,-15.406839787960052) " stroke="rgb(255,255,255)" id="svg_80" stroke-width="3" stroke-miterlimit="10" stroke-linejoin="bevel" text-anchor="start" y="440.743416" x="-325.332016" font-weight="normal" font-style="normal" font-size="12px" font-family="geogebra-sans-serif, sans-serif" fill="none">0.4</text>
    <text transform="matrix(0.6417014002799988,0,0,0.6417014002799988,425.65873646736145,-15.406839787960052) " id="svg_81" text-anchor="start" y="440.743416" x="-325.332016" font-weight="normal" font-style="normal" font-size="12px" font-family="geogebra-sans-serif, sans-serif" fill="rgb(0,0,0)">0.4</text>
    <text transform="matrix(0.6417014002799988,0,0,0.6417014002799988,425.65873646736145,-15.406839787960052) " id="svg_82" text-anchor="start" y="353.743416" x="-325.332016" font-weight="normal" font-style="normal" font-size="12px" font-family="geogebra-sans-serif, sans-serif" fill="rgb(0,0,0)">0.6</text>
    <text transform="matrix(0.6417014002799988,0,0,0.6417014002799988,425.65873646736145,-15.406839787960052) " stroke="rgb(255,255,255)" id="svg_83" stroke-width="3" stroke-miterlimit="10" stroke-linejoin="bevel" text-anchor="start" y="353.743416" x="-325.332016" font-weight="normal" font-style="normal" font-size="12px" font-family="geogebra-sans-serif, sans-serif" fill="none">0.6</text>
    <text transform="matrix(0.6417014002799988,0,0,0.6417014002799988,425.65873646736145,-15.406839787960052) " id="svg_84" text-anchor="start" y="353.743416" x="-325.332016" font-weight="normal" font-style="normal" font-size="12px" font-family="geogebra-sans-serif, sans-serif" fill="rgb(0,0,0)">0.6</text>
    <text transform="matrix(0.6417014002799988,0,0,0.6417014002799988,425.65873646736145,-15.406839787960052) " id="svg_85" text-anchor="start" y="267.743416" x="-325.332016" font-weight="normal" font-style="normal" font-size="12px" font-family="geogebra-sans-serif, sans-serif" fill="rgb(0,0,0)">0.8</text>
    <text transform="matrix(0.6417014002799988,0,0,0.6417014002799988,425.65873646736145,-15.406839787960052) " stroke="rgb(255,255,255)" id="svg_86" stroke-width="3" stroke-miterlimit="10" stroke-linejoin="bevel" text-anchor="start" y="267.743416" x="-325.332016" font-weight="normal" font-style="normal" font-size="12px" font-family="geogebra-sans-serif, sans-serif" fill="none">0.8</text>
    <text transform="matrix(0.6417014002799988,0,0,0.6417014002799988,425.65873646736145,-15.406839787960052) " id="svg_87" text-anchor="start" y="267.743416" x="-325.332016" font-weight="normal" font-style="normal" font-size="12px" font-family="geogebra-sans-serif, sans-serif" fill="rgb(0,0,0)">0.8</text>
    <text transform="matrix(0.6417014002799988,0,0,0.6417014002799988,425.65873646736145,-15.406839787960052) " id="svg_88" text-anchor="start" y="180.743416" x="-315.332016" font-weight="normal" font-style="normal" font-size="12px" font-family="geogebra-sans-serif, sans-serif" fill="rgb(0,0,0)">1</text>
    <text transform="matrix(0.6417014002799988,0,0,0.6417014002799988,425.65873646736145,-15.406839787960052) " stroke="rgb(255,255,255)" id="svg_89" stroke-width="3" stroke-miterlimit="10" stroke-linejoin="bevel" text-anchor="start" y="180.743416" x="-315.332016" font-weight="normal" font-style="normal" font-size="12px" font-family="geogebra-sans-serif, sans-serif" fill="none">1</text>
    <text transform="matrix(0.6417014002799988,0,0,0.6417014002799988,425.65873646736145,-15.406839787960052) " id="svg_90" text-anchor="start" y="180.743416" x="-315.332016" font-weight="normal" font-style="normal" font-size="12px" font-family="geogebra-sans-serif, sans-serif" fill="rgb(0,0,0)">1</text>
    <text transform="matrix(0.6417014002799988,0,0,0.6417014002799988,425.65873646736145,-15.406839787960052) " id="svg_91" text-anchor="start" y="93.743416" x="-325.332016" font-weight="normal" font-style="normal" font-size="12px" font-family="geogebra-sans-serif, sans-serif" fill="rgb(0,0,0)">1.2</text>
    <text transform="matrix(0.6417014002799988,0,0,0.6417014002799988,425.65873646736145,-15.406839787960052) " stroke="rgb(255,255,255)" id="svg_92" stroke-width="3" stroke-miterlimit="10" stroke-linejoin="bevel" text-anchor="start" y="93.743416" x="-325.332016" font-weight="normal" font-style="normal" font-size="12px" font-family="geogebra-sans-serif, sans-serif" fill="none">1.2</text>
    <text transform="matrix(0.6417014002799988,0,0,0.6417014002799988,425.65873646736145,-15.406839787960052) " id="svg_93" text-anchor="start" y="93.743416" x="-325.332016" font-weight="normal" font-style="normal" font-size="12px" font-family="geogebra-sans-serif, sans-serif" fill="rgb(0,0,0)">1.2</text>
    <text transform="matrix(0.6417014002799988,0,0,0.6417014002799988,425.65873646736145,-15.406839787960052) " id="svg_94" text-anchor="start" y="625.743416" x="-315.332016" font-weight="normal" font-style="normal" font-size="12px" font-family="geogebra-sans-serif, sans-serif" fill="rgb(0,0,0)">0</text>
    <text transform="matrix(0.6417014002799988,0,0,0.6417014002799988,425.65873646736145,-15.406839787960052) " stroke="rgb(255,255,255)" id="svg_95" stroke-width="3" stroke-miterlimit="10" stroke-linejoin="bevel" text-anchor="start" y="625.743416" x="-315.332016" font-weight="normal" font-style="normal" font-size="12px" font-family="geogebra-sans-serif, sans-serif" fill="none">0</text>
    <text transform="matrix(0.6417014002799988,0,0,0.6417014002799988,425.65873646736145,-15.406839787960052) " id="svg_96" text-anchor="start" y="625.743416" x="-315.332016" font-weight="normal" font-style="normal" font-size="12px" font-family="geogebra-sans-serif, sans-serif" fill="rgb(0,0,0)">0</text>
    <path stroke="rgb(101,87,210)" id="svg_97" stroke-width="2.5" stroke-miterlimit="10" stroke-linejoin="round" stroke-linecap="round" stroke-opacity="0.8" d="m232.781465,97.429964l1.697891,2.682755m0,0l2.907709,4.594332m0,0l2.907709,4.594332l2.907709,4.594332m0,0l2.907709,4.594325l2.907709,4.594332l2.907709,4.594332l2.907709,4.594332l2.907709,4.594332l2.907709,4.594332l2.907709,4.594325l2.907709,4.594332l2.907709,4.594332l2.907709,4.594332l2.907709,4.594332l2.907709,4.594332l2.907709,4.594332l2.907709,4.594325l2.907709,4.594332l2.907709,4.594332l2.907709,4.594332l2.907709,4.594332l2.907709,4.594332l2.907709,4.594325l2.907709,4.594332l2.907709,4.594332l2.907709,4.594332l2.907709,4.594332l2.907709,4.594332l2.907709,4.594332l2.907709,4.594325l2.907709,4.594332l2.907709,4.594332l2.907709,4.594332l2.907709,4.594332l2.907709,4.594332m0,0l2.907709,4.594332l2.907709,4.594325l2.907709,4.594332l2.907709,4.594332l2.907709,4.594332l2.907709,4.594332l2.907709,4.594332l2.907709,4.594325l2.907709,4.594332l2.907709,4.594332l2.907709,4.594332l2.907709,4.594332l2.907709,4.594332l2.907709,4.594332l2.907709,4.594325l2.907709,4.594332l2.907709,4.594332l2.907709,4.594332l2.907709,4.594332l2.907709,4.594332l2.907709,4.594325l2.907709,4.594332l2.907709,4.594332l2.907709,4.594332l2.907709,4.594332l0.363466,0.567899l0.36346,-0.574291l0.726932,-1.148581l1.453852,-2.297163l2.907709,-4.594332l2.907709,-4.594332l2.907709,-4.594332l2.907709,-4.594332l2.907709,-4.594332l2.907709,-4.594325l2.907709,-4.594332l2.907709,-4.594332l2.907709,-4.594332l2.907709,-4.594332l2.907709,-4.594332l2.907709,-4.594332l2.907709,-4.594325l2.907709,-4.594332l2.907709,-4.594332l2.907709,-4.594332l2.907709,-4.594332l2.907709,-4.594332l2.907709,-4.594332l2.907709,-4.594325l2.907709,-4.594332l2.907709,-4.594332l2.907709,-4.594332l2.907709,-4.594332l2.907709,-4.594332l2.907709,-4.594325l2.907709,-4.594332l2.907709,-4.594332l2.907709,-4.594332l2.907709,-4.594332l2.907709,-4.594332l2.907709,-4.594332l2.907709,-4.594325l2.907709,-4.594332l2.907709,-4.594332l2.907709,-4.594332l2.907709,-4.594332l2.907709,-4.594332m0,0l2.907709,-4.594325l2.907709,-4.594332l2.907709,-4.594332l2.907709,-4.594332l2.907709,-4.594332l2.907709,-4.594332l2.907709,-4.594332l2.907709,-4.594325l2.907709,-4.594332l2.907709,-4.594332l2.907709,-4.594332l2.907709,-4.594332l2.907709,-4.594332l2.907709,-4.594332l2.907709,-4.594325l2.907709,-4.594332m0,0l2.907709,-4.594332l2.907709,-4.594332l2.907709,-4.594332l2.907709,-4.594332m0,0l2.907709,-4.594325m0,0l2.420774,-3.824951" fill="none"/>
    <path stroke="rgb(46,125,50)" id="svg_98" stroke-width="2.5" stroke-miterlimit="10" stroke-linejoin="round" stroke-linecap="round" stroke-opacity="0.8" d="m232.781465,97.429958l1.697891,5.365516m0,0l1.453858,4.594332l1.453852,4.594332m0,0l1.453858,4.594325l1.453852,4.594332l1.453858,4.594332l1.453852,4.594332m0,0l1.453858,4.594332l1.453852,4.594332l1.453858,4.594332l1.453852,4.594325l1.453858,4.594332l1.453852,4.594332l1.453858,4.594332l1.453852,4.594332l1.453858,4.594332l1.453852,4.594325l1.453858,4.594332l1.453852,4.594332l1.453858,4.594332l1.453852,4.594332l1.453858,4.594332l1.453852,4.594332l1.453858,4.594325l1.453852,4.594332l1.453858,4.594332l1.453852,4.594332l1.453858,4.594332l1.453852,4.594332l1.453858,4.594325l1.453852,4.594332l1.453858,4.594332l1.453852,4.594332l1.453858,4.594332l1.453852,4.594332l1.453858,4.594332l1.453852,4.594325l1.453858,4.594332l1.453852,4.594332l1.453858,4.594332l1.453852,4.594332l1.453858,4.594332l1.453852,4.594332l1.453858,4.594325l1.453852,4.594332l1.453858,4.594332l1.453852,4.594332l1.453858,4.594332l1.453852,4.594332l1.453858,4.594325l1.453852,4.594332l1.453858,4.594332l1.453852,4.594332l1.453858,4.594332l1.453852,4.594332l1.453858,4.594332l1.453852,4.594325l1.453858,4.594332l1.453852,4.594332l1.453858,4.594332l0.726926,2.297163l0.36346,-0.777562l0.363466,-1.148581l1.453858,-4.594332l1.453852,-4.594332l1.453858,-4.594332l1.453852,-4.594332l1.453858,-4.594332l1.453852,-4.594332l1.453858,-4.594325l1.453852,-4.594332l1.453858,-4.594332l1.453852,-4.594332m0,0l1.453858,-4.594332l1.453852,-4.594332l1.453858,-4.594325l1.453852,-4.594332l1.453858,-4.594332l1.453852,-4.594332l1.453858,-4.594332l1.453852,-4.594332l1.453858,-4.594332l1.453852,-4.594325l1.453858,-4.594332l1.453852,-4.594332l1.453858,-4.594332l1.453852,-4.594332l1.453858,-4.594332l1.453852,-4.594325l1.453858,-4.594332l1.453852,-4.594332l1.453858,-4.594332l1.453852,-4.594332l1.453858,-4.594332l1.453852,-4.594332l1.453858,-4.594325l1.453852,-4.594332l1.453858,-4.594332l1.453852,-4.594332l1.453858,-4.594332l1.453852,-4.594332l1.453858,-4.594332l1.453852,-4.594325l1.453858,-4.594332l1.453852,-4.594332m0,0l1.453858,-4.594332l1.453852,-4.594332l1.453858,-4.594332l1.453852,-4.594325l1.453858,-4.594332l1.453852,-4.594332l1.453858,-4.594332l1.453852,-4.594332l1.453858,-4.594332l1.453852,-4.594332l1.453858,-4.594325l1.453852,-4.594332l1.453858,-4.594332l1.453852,-4.594332l1.453858,-4.594332l1.453852,-4.594332m0,0l1.453858,-4.594325l1.453852,-4.594332m0,0l0.361445,-1.142203" fill="none"/>
    <path stroke="rgb(211,47,47)" id="svg_99" stroke-width="2.5" stroke-miterlimit="10" stroke-linejoin="round" stroke-linecap="round" stroke-opacity="0.8" d="m232.781465,97.429964l1.697891,1.341381m0,0l2.907709,2.297163m0,0l2.907709,2.297163l2.907709,2.297169m0,0l2.907709,2.297163l2.907709,2.297169l2.907709,2.297163l2.907709,2.297163l2.907709,2.297169l2.907709,2.297163l2.907709,2.297169l2.907709,2.297163l2.907709,2.297169l2.907709,2.297163l2.907709,2.297163l2.907709,2.297169l2.907709,2.297163l2.907709,2.297169l2.907709,2.297163l2.907709,2.297169l2.907709,2.297163l2.907709,2.297163l2.907709,2.297169l2.907709,2.297163l2.907709,2.297169l2.907709,2.297163l2.907709,2.297169l2.907709,2.297163l2.907709,2.297163l2.907709,2.297169l2.907709,2.297163l2.907709,2.297169l2.907709,2.297163l2.907709,2.297169l2.907709,2.297163l2.907709,2.297163m0,0l2.907709,2.297169l2.907709,2.297163l2.907709,2.297169l2.907709,2.297163l2.907709,2.297163l2.907709,2.297169l2.907709,2.297163l2.907709,2.297169l2.907709,2.297163l2.907709,2.297169l2.907709,2.297163l2.907709,2.297163l2.907709,2.297169l2.907709,2.297163l2.907709,2.297169l2.907709,2.297163l2.907709,2.297169l2.907709,2.297163l2.907709,2.297163l2.907709,2.297169l2.907709,2.297163l2.907709,2.297169l2.907709,2.297163l2.907709,2.297169l2.907709,2.297163l2.907709,2.297163l2.907709,2.297169l2.907709,2.297163l2.907709,2.297169l2.907709,2.297163l2.907709,2.297169l2.907709,2.297163l2.907709,2.297163l2.907709,2.297169l2.907709,2.297163l2.907709,2.297169l2.907709,2.297163l2.907709,2.297163l2.907709,2.297169l2.907709,2.297163l2.907709,2.297169l2.907709,2.297163l2.907709,2.297169l2.907709,2.297163l2.907709,2.297163l2.907709,2.297169l2.907709,2.297163l2.907709,2.297169l2.907709,2.297163l2.907709,2.297169l2.907709,2.297163l2.907709,2.297163l2.907709,2.297169l2.907709,2.297163l2.907709,2.297169l2.907709,2.297163l2.907709,2.297169l2.907709,2.297163l2.907709,2.297163l2.907709,2.297169l2.907709,2.297163l2.907709,2.297169l2.907709,2.297163l2.907709,2.297169l2.907709,2.297163l2.907709,2.297163l2.907709,2.297169l2.907709,2.297163l2.907709,2.297169l2.907709,2.297163l2.907709,2.297163l2.907709,2.297169l2.907709,2.297163l2.907709,2.297169l2.907709,2.297163l2.907709,2.297169l2.907709,2.297163l2.907709,2.297163l2.907709,2.297169l2.907709,2.297163l2.907709,2.297169l2.907709,2.297163l2.907709,2.297169l2.907709,2.297163l2.907709,2.297163l1.453858,1.148588l0.726926,0.574291l0.36346,0.092052l0.363466,-0.287149l2.907709,-2.297163l2.907709,-2.297163l2.907709,-2.297169l2.907709,-2.297163l2.907709,-2.297169l2.907709,-2.297163l2.907709,-2.297163l2.907709,-2.297169l2.907709,-2.297163l2.907709,-2.297169l2.907709,-2.297163l2.907709,-2.297169l2.907709,-2.297163l2.907709,-2.297163l2.907709,-2.297169l2.907709,-2.297163l2.907709,-2.297169l2.907709,-2.297163l2.907709,-2.297169l2.907709,-2.297163l2.907709,-2.297163l2.907709,-2.297169l2.907709,-2.297163l2.907709,-2.297169l2.907709,-2.297163l2.907709,-2.297169l2.907709,-2.297163l2.907709,-2.297163l2.907709,-2.297169l2.907709,-2.297163l2.907709,-2.297169l2.907709,-2.297163l2.907709,-2.297169l2.907709,-2.297163l2.907709,-2.297163l2.907709,-2.297169l2.907709,-2.297163l2.907709,-2.297169l2.907709,-2.297163l2.907709,-2.297163l2.907709,-2.297169l2.907709,-2.297163" fill="none"/>
    <path stroke="rgb(219,97,20)" id="svg_100" stroke-width="2.5" stroke-miterlimit="10" stroke-linejoin="round" stroke-linecap="round" stroke-opacity="0.8" d="m232.781465,97.429964l1.697891,0m0,0l2.907709,0m0,0l2.907709,0l2.907709,0m0,0l2.907709,0l2.907709,0l2.907709,0l2.907709,0l2.907709,0l2.907709,0l2.907709,0l2.907709,0l2.907709,0l2.907709,0l2.907709,0l2.907709,0l2.907709,0l2.907709,0l2.907709,0l2.907709,0l2.907709,0l2.907709,0l2.907709,0l2.907709,0l2.907709,0l2.907709,0l2.907709,0l2.907709,0l2.907709,0l2.907709,0l2.907709,0l2.907709,0l2.907709,0l2.907709,0l2.907709,0l2.907709,0m0,0l2.907709,0l2.907709,0l2.907709,0l2.907709,0l2.907709,0l2.907709,0l2.907709,0l2.907709,0l2.907709,0l2.907709,0l2.907709,0l2.907709,0l2.907709,0l2.907709,0l2.907709,0l2.907709,0l2.907709,0l2.907709,0l2.907709,0l2.907709,0l2.907709,0l2.907709,0l2.907709,0l2.907709,0l2.907709,0l2.907709,0l2.907709,0l2.907709,0l2.907709,0l2.907709,0l2.907709,0l2.907709,0l2.907709,0l2.907709,0l2.907709,0l2.907709,0l2.907709,0l2.907709,0l2.907709,0l2.907709,0l2.907709,0l2.907709,0l2.907709,0l2.907709,0l2.907709,0l2.907709,0l2.907709,0l2.907709,0l2.907709,0l2.907709,0l2.907709,0l2.907709,0l2.907709,0l2.907709,0l2.907709,0l2.907709,0l2.907709,0l2.907709,0l2.907709,0l2.907709,0l2.907709,0l2.907709,0l2.907709,0l2.907709,0l2.907709,0l2.907709,0l2.907709,0l2.907709,0l2.907709,0l2.907709,0l2.907709,0l2.907709,0l2.907709,0l2.907709,0l2.907709,0l2.907709,0l2.907709,0l2.907709,0l2.907709,0l2.907709,0l2.907709,0l2.907709,0l2.907709,0l2.907709,0l2.907709,0l2.907709,0l2.907709,0l2.907709,0l2.907709,0l2.907709,0l2.907709,0l2.907709,0l2.907709,0l2.907709,0l2.907709,0l2.907709,0l2.907709,0l2.907709,0l2.907709,0l2.907709,0l2.907709,0l2.907709,0l2.907709,0l2.907709,0l2.907709,0l2.907709,0l2.907709,0l2.907709,0l2.907709,0l2.907709,0l2.907709,0l2.907709,0l2.907709,0l2.907709,0l2.907709,0l2.907709,0l2.907709,0l2.907709,0l2.907709,0l2.907709,0l2.907709,0l2.907709,0l2.907709,0l2.907709,0l2.907709,0l2.907709,0l2.907709,0l2.907709,0" fill="none"/>
    <path stroke="rgb(0,0,0)" id="svg_101" stroke-dasharray="4.5,4" stroke-width="0.5" stroke-miterlimit="10" stroke-linejoin="round" d="m373.998985,413.726747l0,-414.539105" fill="none"/>
    <path id="svg_102" d="m377.207492,208.995444c0,1.772007 -1.4365,3.208507 -3.208507,3.208507c-1.772007,0 -3.208507,-1.4365 -3.208507,-3.208507c0,-1.772007 1.4365,-3.208507 3.208507,-3.208507c1.772007,0 3.208507,1.4365 3.208507,3.208507z" fill="rgb(21,101,192)"/>
    <path stroke="rgb(0,0,0)" id="svg_103" stroke-miterlimit="10" stroke-linejoin="round" stroke-linecap="round" d="m377.207492,208.995444c0,1.772007 -1.4365,3.208507 -3.208507,3.208507c-1.772007,0 -3.208507,-1.4365 -3.208507,-3.208507c0,-1.772007 1.4365,-3.208507 3.208507,-3.208507c1.772007,0 3.208507,1.4365 3.208507,3.208507z" fill="none"/>
    <path id="svg_104" d="m377.207492,376.343662c0,1.772013 -1.4365,3.208507 -3.208507,3.208507c-1.772007,0 -3.208507,-1.436494 -3.208507,-3.208507c0,-1.772007 1.4365,-3.208507 3.208507,-3.208507c1.772007,0 3.208507,1.4365 3.208507,3.208507z" fill="rgb(21,101,192)"/>
    <path stroke="rgb(0,0,0)" id="svg_105" stroke-miterlimit="10" stroke-linejoin="round" stroke-linecap="round" d="m377.207492,376.343662c0,1.772013 -1.4365,3.208507 -3.208507,3.208507c-1.772007,0 -3.208507,-1.436494 -3.208507,-3.208507c0,-1.772007 1.4365,-3.208507 3.208507,-3.208507c1.772007,0 3.208507,1.4365 3.208507,3.208507z" fill="none"/>
    <path id="svg_106" d="m589.033772,376.343662c0,1.772013 -1.4365,3.208507 -3.208507,3.208507c-1.772007,0 -3.208507,-1.436494 -3.208507,-3.208507c0,-1.772007 1.4365,-3.208507 3.208507,-3.208507c1.772007,0 3.208507,1.4365 3.208507,3.208507z" fill="rgb(21,101,192)"/>
    <path stroke="rgb(0,0,0)" id="svg_107" stroke-miterlimit="10" stroke-linejoin="round" stroke-linecap="round" d="m589.033772,376.343662c0,1.772013 -1.4365,3.208507 -3.208507,3.208507c-1.772007,0 -3.208507,-1.436494 -3.208507,-3.208507c0,-1.772007 1.4365,-3.208507 3.208507,-3.208507c1.772007,0 3.208507,1.4365 3.208507,3.208507z" fill="none"/>
   </g>
  </g>
  <path id="svg_108" d="m393.444444,81" opacity="0.5" stroke-width="1.5" stroke="#000" fill="#fff"/>
 </g>
</svg>